name rise32.9588peak41.5061fall63.4684.mot
datacolumns 19
datarows 12
range 3.76332100000000 3.78166400000000
endheader
time	ground_force1_vx	ground_force1_vy	ground_force1_vz	ground_force1_px	ground_force1_py	ground_force1_pz	ground_force2_vx	ground_force2_vy	ground_force2_vz	ground_force2_px	ground_force2_py	ground_force2_pz	ground_torque1_x	ground_torque1_y	ground_torque1_z	ground_torque2_x	ground_torque2_y	ground_torque2_z	
3.76332100000000	52.29188200000000	794.55420900000001	55.19227000000000	0.28134000000000	0.00000000000000	0.09210200000000	0.00000000000000	0.00000000000000	0.00000000000000	0.00000000000000	0.00000000000000	0.00000000000000	0.00000000000000	21.24192200000000	0.00000000000000	0.00000000000000	0.00000000000000	0.00000000000000	
3.76499000000000	51.41701600000000	794.29771700000003	55.09136900000000	0.28018800000000	0.00000000000000	0.09209700000000	0.00000000000000	0.00000000000000	0.00000000000000	0.00000000000000	0.00000000000000	0.00000000000000	0.00000000000000	21.19191600000000	0.00000000000000	0.00000000000000	0.00000000000000	0.00000000000000	
3.76666400000000	50.55284200000000	793.93220499999995	54.97947500000000	0.27906400000000	0.00000000000000	0.09209000000000	0.00000000000000	0.00000000000000	0.00000000000000	0.00000000000000	0.00000000000000	0.00000000000000	0.00000000000000	21.13739900000000	0.00000000000000	0.00000000000000	0.00000000000000	0.00000000000000	
3.76832100000000	49.70040200000000	793.46136700000000	54.85711600000000	0.27796800000000	0.00000000000000	0.09207900000000	0.00000000000000	0.00000000000000	0.00000000000000	0.00000000000000	0.00000000000000	0.00000000000000	0.00000000000000	21.07862000000000	0.00000000000000	0.00000000000000	0.00000000000000	0.00000000000000	
3.76998400000000	48.86063100000000	792.88890600000002	54.72479200000000	0.27689900000000	0.00000000000000	0.09206500000000	0.00000000000000	0.00000000000000	0.00000000000000	0.00000000000000	0.00000000000000	0.00000000000000	0.00000000000000	21.01580900000000	0.00000000000000	0.00000000000000	0.00000000000000	0.00000000000000	
3.77166100000000	48.03435600000000	792.21853299999998	54.58297200000000	0.27585800000000	0.00000000000000	0.09204900000000	0.00000000000000	0.00000000000000	0.00000000000000	0.00000000000000	0.00000000000000	0.00000000000000	0.00000000000000	20.94917900000000	0.00000000000000	0.00000000000000	0.00000000000000	0.00000000000000	
3.77331800000000	47.22230000000000	791.45397000000003	54.43210000000000	0.27484300000000	0.00000000000000	0.09203100000000	0.00000000000000	0.00000000000000	0.00000000000000	0.00000000000000	0.00000000000000	0.00000000000000	0.00000000000000	20.87892800000000	0.00000000000000	0.00000000000000	0.00000000000000	0.00000000000000	
3.77499100000000	46.42508000000000	790.59894699999995	54.27259400000000	0.27385400000000	0.00000000000000	0.09200900000000	0.00000000000000	0.00000000000000	0.00000000000000	0.00000000000000	0.00000000000000	0.00000000000000	0.00000000000000	20.80523800000000	0.00000000000000	0.00000000000000	0.00000000000000	0.00000000000000	
3.77665200000000	45.64321500000000	789.65720099999999	54.10484900000000	0.27289100000000	0.00000000000000	0.09198500000000	0.00000000000000	0.00000000000000	0.00000000000000	0.00000000000000	0.00000000000000	0.00000000000000	0.00000000000000	20.72827900000000	0.00000000000000	0.00000000000000	0.00000000000000	0.00000000000000	
3.77831700000000	44.87712100000000	788.63247799999999	53.92923800000000	0.27195300000000	0.00000000000000	0.09195900000000	0.00000000000000	0.00000000000000	0.00000000000000	0.00000000000000	0.00000000000000	0.00000000000000	0.00000000000000	20.64820800000000	0.00000000000000	0.00000000000000	0.00000000000000	0.00000000000000	
3.77998700000000	44.12712200000000	787.52853000000005	53.74611100000000	0.27103800000000	0.00000000000000	0.09193000000000	0.00000000000000	0.00000000000000	0.00000000000000	0.00000000000000	0.00000000000000	0.00000000000000	0.00000000000000	20.56517100000000	0.00000000000000	0.00000000000000	0.00000000000000	0.00000000000000	
3.78166400000000	43.39344700000000	786.34911699999998	53.55580500000000	0.27014600000000	0.00000000000000	0.09189800000000	0.00000000000000	0.00000000000000	0.00000000000000	0.00000000000000	0.00000000000000	0.00000000000000	0.00000000000000	20.47930300000000	0.00000000000000	0.00000000000000	0.00000000000000	0.00000000000000	
